<svg viewBox="0 0 48 48" xmlns="http://www.w3.org/2000/svg">
  <path fill="#00599C" d="M22.903 3.286c.679-.381 1.515-.381 2.193 0l16.116 9.177c.679.381 1.096 1.084 1.096 1.844v18.364c0 .76-.417 1.463-1.096 1.844l-16.116 9.176c-.679.381-1.515.381-2.193 0L6.787 34.515c-.678-.381-1.096-1.084-1.096-1.844V14.307c0-.76.418-1.463 1.096-1.844L22.903 3.286z"/>
  <path fill="#FFF" d="M33.5 22H32v-1.5h-1.5V22H29v1.5h1.5V25H32v-1.5h1.5V22zm-7 0H25v-1.5h-1.5V22H22v1.5h1.5V25H25v-1.5h1.5V22zm-13.09 9.73h3.8v-2.36h-3.8v-2.67h4.14v-2.36h-6.86v12h6.97v-2.36h-4.25v-2.25zm14.39-7.39h-2.72v12h2.72v-4.67h3.42v4.67h2.72v-12h-2.72v4.95h-3.42v-4.95z"/>
</svg>
