<svg viewBox="0 0 48 48" xmlns="http://www.w3.org/2000/svg">
  <path fill="#306998" d="M24.047 5c-1.555.008-3.041.109-4.377.3-4.706.67-5.555 2.07-5.555 4.653v3.41h11.11v1.403H12.6c-3.232 0-6.06 1.943-6.95 5.64-.96 4.24-.96 6.89 0 11.31.72 3.32 2.44 5.64 5.67 5.64h3.66v-4.86c0-3.67 3.17-6.9 6.95-6.9h11.08c3.08 0 5.56-2.54 5.56-5.64V9.954c0-3-2.53-5.25-5.56-5.65-1.78-.23-3.64-.34-5.02-.31zM18.58 7.58c1.16 0 2.11.95 2.11 2.12 0 1.16-.95 2.11-2.11 2.11-1.17 0-2.12-.95-2.12-2.11 0-1.17.95-2.12 2.12-2.12z"/>
  <path fill="#FFD43B" d="M24.047 43c1.555-.008 3.041-.109 4.377-.3 4.706-.67 5.555-2.07 5.555-4.653v-3.41H22.869v-1.403h12.625c3.232 0 6.06-1.943 6.95-5.64.96-4.24.96-6.89 0-11.31-.72-3.32-2.44-5.64-5.67-5.64h-3.66v4.86c0 3.67-3.17 6.9-6.95 6.9H15.085c-3.08 0-5.56 2.54-5.56 5.64v10.445c0 3 2.53 5.25 5.56 5.65 1.78.23 3.64.34 5.02.31zm5.47-2.58c-1.16 0-2.11-.95-2.11-2.12 0-1.16.95-2.11 2.11-2.11 1.17 0 2.12.95 2.12 2.11 0 1.17-.95 2.12-2.12 2.12z"/>
</svg>
