<svg viewBox="0 0 48 48" xmlns="http://www.w3.org/2000/svg">
  <path fill="#CE422B" d="M42.3 25.3c-.2-.6-.7-1-1.3-1.1l-2.7-.3c-.2-.8-.5-1.6-.9-2.4l1.7-2.1c.4-.5.4-1.2.1-1.7l-1.4-2.4c-.3-.5-1-.7-1.5-.6l-2.6.7c-.6-.6-1.3-1.2-2-1.6l.5-2.7c.1-.6-.1-1.2-.6-1.5l-2.4-1.4c-.5-.3-1.2-.2-1.7.1l-2.1 1.7c-.8-.3-1.6-.6-2.4-.8l-.4-2.7c-.1-.6-.5-1.1-1.1-1.3l-2.8-.8c-.6-.2-1.2 0-1.6.5l-1.5 2.3c-.8.1-1.6.3-2.4.6l-1.9-1.9c-.5-.4-1.2-.5-1.7-.2l-2.5 1.3c-.5.3-.8.9-.7 1.5l.4 2.7c-.7.5-1.4 1.1-2 1.8l-2.6-.5c-.6-.1-1.2.1-1.5.6l-1.5 2.3c-.3.5-.2 1.2.2 1.7l1.8 2c-.3.8-.5 1.6-.7 2.4l-2.7.5c-.6.1-1.1.5-1.2 1.1l-.7 2.8c-.1.6.1 1.2.6 1.6l2.2 1.6c.1.8.3 1.6.6 2.4l-1.8 2.1c-.4.5-.4 1.2-.1 1.7l1.3 2.5c.3.5.9.8 1.5.7l2.7-.4c.6.7 1.2 1.3 1.9 1.9l-.7 2.6c-.1.6.1 1.2.6 1.5l2.4 1.4c.5.3 1.2.2 1.7-.2l2-1.7c.8.3 1.6.5 2.4.7l.3 2.7c.1.6.5 1.1 1.1 1.2l2.8.7c.6.2 1.2 0 1.6-.4l1.6-2.2c.8-.1 1.6-.3 2.4-.6l2 1.8c.5.4 1.2.4 1.7.1l2.5-1.3c.5-.3.8-.9.7-1.5l-.5-2.6c.7-.5 1.3-1.1 1.9-1.8l2.6.6c.6.1 1.2-.1 1.5-.6l1.4-2.4c.3-.5.2-1.2-.2-1.7l-1.7-2c.3-.8.5-1.6.7-2.4l2.7-.4c.6-.1 1.1-.5 1.2-1.1l.7-2.8c.2-.6 0-1.2-.4-1.6l-2.3-1.5c-.1-.8-.3-1.6-.6-2.4l1.9-2c.4-.5.4-1.2.1-1.7l-1.4-2.4z"/>
  <circle fill="#FFF" cx="24" cy="24" r="9"/>
  <circle fill="#CE422B" cx="24" cy="24" r="5"/>
</svg>
